<?xml version="1.0" standalone="no"?>
<!DOCTYPE svg PUBLIC "-//W3C//DTD SVG 20010904//EN"
 "http://www.w3.org/TR/2001/REC-SVG-20010904/DTD/svg10.dtd">
<svg version="1.0" xmlns="http://www.w3.org/2000/svg"
 width="700.000000pt" height="700.000000pt" viewBox="0 0 700.000000 700.000000"
 preserveAspectRatio="xMidYMid meet">
<metadata>
Created by potrace 1.11, written by Peter Selinger 2001-2013
</metadata>
<g transform="translate(0.000000,700.000000) scale(0.100000,-0.100000)"
fill="#000000" stroke="none">
<path d="M3320 5139 c-159 -20 -210 -32 -343 -76 -419 -139 -770 -448 -958
-843 -65 -135 -64 -134 -88 -210 -32 -104 -46 -164 -57 -245 -3 -22 -8 -47
-11 -55 -10 -27 -12 -323 -2 -390 5 -36 11 -81 14 -100 15 -113 71 -287 133
-420 32 -70 136 -249 151 -260 3 -3 25 -30 47 -60 48 -64 156 -176 233 -240
29 -25 59 -50 65 -55 31 -29 173 -115 265 -161 98 -50 286 -117 360 -129 19
-3 38 -8 42 -10 18 -12 157 -26 284 -30 125 -4 251 6 380 30 109 20 306 90
416 146 49 25 201 118 209 128 3 3 31 26 63 49 124 92 288 277 383 432 83 135
157 309 194 461 20 85 23 100 37 209 14 106 6 441 -12 470 -2 3 -6 23 -9 45
-28 177 -161 490 -264 620 -4 6 -29 38 -54 71 -140 183 -355 358 -573 467 -51
25 -233 95 -270 104 -11 2 -24 5 -30 7 -30 9 -63 16 -85 20 -14 2 -36 7 -50
10 -82 20 -366 29 -470 15z"/>
</g>
</svg>
