<svg enable-background="new 0 0 158.8 16" viewBox="0 0 158.8 16" xmlns="http://www.w3.org/2000/svg"><path d="m304.5 11.3c-5 0-5-4-9.9-4-5 0-5 4-9.9 4-5 0-5-4-9.9-4-5 0-5 4-9.9 4-5 0-5-4-9.9-4-5 0-5 4-9.9 4-5 0-5-4-9.9-4-5 0-5 4-9.9 4-5 0-5-4-9.9-4-5 0-5 4-9.9 4-5 0-5-4-9.9-4-5 0-5 4-9.9 4-5 0-5-4-9.9-4-5 0-5 4-9.9 4-5 0-5-4-9.9-4-5 0-5 4-9.9 4-5 0-5-4-9.9-4-5 0-5 4-9.9 4-5 0-5-4-9.9-4-5 0-5 4-9.9 4-5 0-5-4-9.9-4-5 0-5 4-9.9 4-5 0-5-4-9.9-4-5 0-5 4-9.9 4-5 0-5-4-9.9-4-5 0-5 4-9.9 4-5 0-5-4-9.9-4-5 0-5 4-9.9 4-5 0-5-4-9.9-4-5 0-5 4-9.9 4-5 0-5-4-9.9-4s-5 4-9.9 4" fill="none" stroke="#000" stroke-miterlimit="10" stroke-width="2"/></svg>